<svg width="741" height="800" viewBox="0 0 741 800" fill="none" xmlns="http://www.w3.org/2000/svg">
<path fill-rule="evenodd" clip-rule="evenodd" d="M320.302 500C320.302 472.375 342.702 450 370.302 450C397.927 450 420.302 472.375 420.302 500C420.302 518.45 410.177 534.425 395.302 543.075V625C395.302 638.8 384.102 650 370.302 650C356.502 650 345.302 638.8 345.302 625V543.075C330.427 534.4 320.302 518.45 320.302 500Z" fill="black"/>
<path d="M369.376 0C487.301 0 570.301 89.8748 570.301 204.6V300H595.301C650.451 300 695.301 344.85 695.301 400V597.573L645.302 547.573L645.301 400C645.301 372.45 622.851 350 595.301 350H447.728L397.728 300H520.301V204.6C520.301 117.9 459.276 50 369.376 50C304.631 50.0001 256.438 85.254 234.101 136.373L196.857 99.1289C229.847 39.7499 291.424 0.000106339 369.376 0Z" fill="black"/>
<path d="M45.3015 400C45.3015 344.85 90.1515 300 145.302 300H170.302V228.45L220.302 252.3V300H295.302L293.802 350H145.302C117.727 350 95.3015 372.45 95.3015 400V700C95.3015 727.55 117.727 750 145.302 750H595.302C622.852 750 645.302 727.55 645.302 700L639.302 650L695.302 700C695.302 755.15 650.452 800 595.302 800H145.302C90.1515 800 45.3015 755.15 45.3015 700V400Z" fill="black"/>
<rect x="-8.69849" y="63.4264" width="60" height="1011.64" rx="21" transform="rotate(-45 -8.69849 63.4264)" fill="black"/>
</svg>
