<svg width="650" height="823" viewBox="0 0 650 823" fill="none" xmlns="http://www.w3.org/2000/svg">
<path fill-rule="evenodd" clip-rule="evenodd" d="M550 322.565H525H475H175H125H100C44.85 322.565 0 367.415 0 422.565V722.565C0 777.715 44.85 822.565 100 822.565H550C605.15 822.565 650 777.715 650 722.565V422.565C650 367.415 605.15 322.565 550 322.565ZM550 772.565C577.55 772.565 600 750.115 600 722.565V422.565C600 395.015 577.55 372.565 550 372.565H100C72.425 372.565 50 395.015 50 422.565V722.565C50 750.115 72.425 772.565 100 772.565H550Z" fill="black"/>
<path d="M325 472.565C297.4 472.565 275 494.94 275 522.565C275 541.015 285.125 556.965 300 565.64V647.565C300 661.365 311.2 672.565 325 672.565C338.8 672.565 350 661.365 350 647.565V565.64C364.875 556.99 375 541.015 375 522.565C375 494.94 352.625 472.565 325 472.565Z" fill="black"/>
<path d="M153.168 243.652L177.818 335.813L129.516 348.732L104.866 256.571C75.7134 147.578 129.935 38.074 244.315 7.48115C358.235 -22.989 461.639 42.388 491.282 153.217L515.932 245.378L467.63 258.297L442.98 166.136C420.578 82.3806 344.081 32.5544 257.234 55.7832C169.493 79.2511 131.147 161.321 153.168 243.652Z" fill="black"/>
</svg>
